<svg xmlns="http://www.w3.org/2000/svg" viewBox="0 0 333334 307324" shape-rendering="geometricPrecision" text-rendering="geometricPrecision" image-rendering="optimizeQuality" fill-rule="evenodd" clip-rule="evenodd"><path d="M195781 165124l103080-16581c9150-1472 17847 4815 19319 13965l14940 92878c1472 9150-4815 17847-13965 19319l-103080 16581c-9150 1472-17847-4815-19319-13965l-14940-92878c-1472-9150 4815-17847 13965-19319zm52809 43598l-19951-223c587-6436 2874-11672 6910-15734 4022-4043 10223-6771 18588-8166 9619-1604 16857-974 21750 1900 4875 2877 7776 7036 8680 12465 530 3178 135 6209-1170 9075s-3539 5569-6719 8094c2969 229 5288 689 6939 1385 2708 1102 4930 2780 6696 5010 1769 2247 2946 5070 3516 8488 716 4294 287 8602-1305 12929-1594 4309-4317 7887-8187 10722-3870 2834-9241 4824-16129 5972-6699 1117-12121 1208-16250 272-4146-933-7707-2706-10722-5328-2997-2625-5560-6135-7667-10515l20054-6150c1497 4005 3215 6684 5182 7998 1950 1317 4231 1766 6859 1328 2731-455 4847-1849 6350-4165 1485-2313 1950-5145 1388-8511-570-3418-1887-5917-3954-7515-2064-1581-4609-2128-7615-1626-1598 267-3748 1031-6413 2305l-1378-14830c1145-15 2035-75 2671-181 2645-441 4718-1669 6204-3665 1486-1995 2044-4154 1655-6490-375-2250-1343-3925-2886-5027-1563-1116-3513-1480-5831-1093-2405 401-4226 1446-5494 3158-1254 1692-1844 4403-1772 8117zM170278 30939l12533 75185-20759 3461-8201-49194c-2931 3107-5843 5698-8732 7789-2889 2092-6578 4263-11074 6481l-2789-16731c6610-3437 11596-7063 14924-10873 3342-3830 5717-8259 7126-13288l16972-2829zM48209 154555l100148 29511c8890 2620 14024 12043 11404 20933l-26590 90235c-2620 8890-12043 14024-20933 11404L12090 277127c-8890-2620-14024-12043-11404-20933l26590-90236c2620-8890 12043-14024 20933-11404zm72443 78737l-13723-1954c-759 867-1598 1698-2515 2492-3469 2993-9004 5781-16602 8347-4489 1476-7526 2553-9087 3206-1565 669-3436 1568-5639 2740l28961 8563-4463 15094-55624-16446c2258-5293 5728-9891 10385-13765 4663-3890 12409-7814 23237-11772 2048-751 3883-1464 5502-2139 3623-1509 6176-2830 7666-3964 2142-1646 3491-3409 4046-5288 602-2034 370-3994-709-5883-1080-1889-2763-3164-5046-3839-2360-698-4522-526-6469 519-1952 1061-3737 3387-5370 7024l-18096-6989c2277-5017 4816-8691 7625-11052s6203-3789 10192-4315c4004-521 9125 148 15368 1994 6522 1928 11364 4170 14557 6735 3182 2545 5364 5672 6520 9358 1167 3706 1188 7460 59 11280-882 2983-2384 5681-4500 8098l13722 1954zM98989 16796L202069 214c9150-1472 17847 4815 19319 13965l14940 92878c1472 9150-4815 17847-13965 19319l-103080 16582c-9150 1472-17847-4815-19319-13965L85024 36115c-1472-9150 4815-17847 13965-19319z"/></svg>